Coordinates
version=1
nRows=11
nColumns=40
inDegrees=yes

Units are S.I. units (second, meters, Newtons, ...)
Angles are in degrees.

endheader
time	pelvis_tilt	pelvis_list	pelvis_rotation	pelvis_tx	pelvis_ty	pelvis_tz	hip_flexion_r	hip_adduction_r	hip_rotation_r	knee_angle_r	knee_angle_r_beta	ankle_angle_r	subtalar_angle_r	mtp_angle_r	hip_flexion_l	hip_adduction_l	hip_rotation_l	knee_angle_l	knee_angle_l_beta	ankle_angle_l	subtalar_angle_l	mtp_angle_l	lumbar_extension	lumbar_bending	lumbar_rotation	arm_flex_r	arm_add_r	arm_rot_r	elbow_flex_r	pro_sup_r	wrist_flex_r	wrist_dev_r	arm_flex_l	arm_add_l	arm_rot_l	elbow_flex_l	pro_sup_l	wrist_flex_l	wrist_dev_l
     45.06000000	     -2.53781477	     -6.09594554	      2.93246394	      0.94197863	      0.93252620	      0.47484131	      9.27433116	      6.25980765	    -18.21224315	     11.51602645	     11.51602645	      8.17366254	      1.11410002	     -5.80420498	     33.30761354	    -12.44008178	      1.61864587	     62.99512544	     62.99512544	      4.93624649	    -17.86052515	     10.01500422	     -9.25456538	      6.32232670	      3.24247461	     14.94589233	    -14.37126214	     -4.82420947	     64.57336127	     45.36886804	      0.00000000	      0.00000000	      6.99634050	     -6.65786569	     -4.70452741	     35.21043058	     45.51888609	      0.00000000	      0.00000000
     45.07235714	     -2.70174223	     -6.10124513	      3.10002201	      0.94054475	      0.93265029	      0.47551080	      8.62849293	      6.42718862	    -18.42034754	     10.79349574	     10.79349574	      8.23789402	      1.55292744	     -6.09017276	     34.12517592	    -12.38628187	      1.25563670	     59.79296026	     59.79296026	      5.42903633	    -18.11914876	     10.25528855	     -9.16826320	      6.29562668	      3.12993633	     17.27834050	    -14.33863564	     -4.91740948	     66.54411610	     45.31655790	      0.00000000	      0.00000000	      5.93564075	     -6.72984136	     -4.57238506	     33.65122355	     45.49401248	      0.00000000	      0.00000000
     45.08471429	     -2.82190021	     -6.17123840	      3.26849286	      0.93920468	      0.93274352	      0.47618654	      7.84593552	      6.69277076	    -18.71543984	      9.88725904	      9.88725904	      8.26820450	      2.25579990	     -6.41756607	     34.65206623	    -12.36523310	      0.89602406	     56.22806735	     56.22806735	      5.81150642	    -18.17283685	     10.36301490	     -9.14695078	      6.35654187	      3.15633688	     19.42598241	    -14.48497611	     -4.89721497	     68.92027840	     45.24720267	      0.00000000	      0.00000000	      4.97433899	     -6.73476168	     -4.40155562	     32.03455848	     45.46832077	      0.00000000	      0.00000000
     45.09707143	     -2.95022593	     -6.21266796	      3.40173966	      0.93794073	      0.93268244	      0.47675044	      7.10921797	      6.89357940	    -19.15681220	      9.04790388	      9.04790388	      8.17939506	      3.17862754	     -7.25913772	     34.92662506	    -12.28248399	      0.46017310	     52.32891891	     52.32891891	      5.92544126	    -18.11851804	      9.95983903	     -9.13960643	      6.41797447	      3.89417697	     20.83373526	    -15.32014497	     -4.84848869	     72.34104686	     45.14965440	      0.00000000	      0.00000000	      4.78933930	     -6.54835925	     -3.93899131	     29.44640617	     45.44276589	      0.00000000	      0.00000000
     45.10942857	     -3.09342324	     -6.21586490	      3.52565378	      0.93669297	      0.93255417	      0.47723001	      6.47931106	      7.06162110	    -19.21909327	      8.38403998	      8.38403998	      8.33270651	      3.52777792	     -7.30737477	     35.03682899	    -12.04929459	      0.12337357	     48.24200023	     48.24200023	      6.22403634	    -17.88437097	     10.39463704	     -9.10132434	      6.40547630	      3.94706497	     23.10637365	    -15.29385350	     -5.14422897	     73.95696414	     45.11865327	      0.00000000	      0.00000000	      3.67934348	     -6.62077130	     -3.81468658	     28.56871005	     45.41409467	      0.00000000	      0.00000000
     45.12178571	     -3.20434825	     -6.30951295	      3.67548963	      0.93556328	      0.93221585	      0.47755141	      5.76415452	      7.29710621	    -19.72919483	      7.62122971	      7.62122971	      8.43272269	      4.61985063	     -7.70541492	     35.00778041	    -11.85590078	     -0.11709985	     44.05314343	     44.05314343	      6.23869211	    -17.46314630	     10.02438577	     -9.08607068	      6.55079000	      4.27746357	     25.01985199	    -15.69447595	     -5.32289685	     76.37318210	     45.06969425	      0.00000000	      0.00000000	      3.03242018	     -6.59183273	     -3.18645219	     26.89331271	     45.34409720	      0.00000000	      0.00000000
     45.13414286	     -3.38772894	     -6.37335000	      3.78375761	      0.93448321	      0.93171015	      0.47775663	      5.27841461	      7.48138626	    -19.79544563	      7.14687828	      7.14687828	      8.63479192	      4.87908075	     -7.77830534	     34.93837574	    -11.58901846	     -0.33773704	     39.83897605	     39.83897605	      6.57172785	    -16.62894222	     10.43000484	     -8.97457092	      6.62464475	      4.43528581	     27.13885537	    -15.73879039	     -5.54671516	     77.69600998	     45.04551635	      0.00000000	      0.00000000	      1.97366168	     -6.63732759	     -3.06153481	     26.23956362	     45.31256307	      0.00000000	      0.00000000
     45.14650000	     -3.60028015	     -6.49405873	      3.91932167	      0.93343801	      0.93097983	      0.47782171	      4.84528318	      7.70828654	    -19.95648077	      6.70368695	      6.70368695	      8.85527528	      5.22058663	     -7.89475155	     34.89932832	    -11.35010711	     -0.49299813	     35.74677684	     35.74677684	      6.90303781	    -15.42541092	     10.75075470	     -8.83287085	      6.76148527	      4.57756794	     29.26776115	    -15.89676676	     -5.73582746	     78.97643188	     45.02122463	      0.00000000	      0.00000000	      0.98147118	     -6.59387775	     -2.92548785	     25.64060980	     45.27812654	      0.00000000	      0.00000000
     45.15885714	     -3.64038697	     -6.66376008	      4.10052432	      0.93265914	      0.93039653	      0.47769916	      4.11279126	      7.98887388	    -20.56034606	      6.07668606	      6.07668606	      9.06017784	      6.41645944	     -8.11723204	     34.61321984	    -11.17375241	     -0.68847419	     31.72650469	     31.72650469	      6.95353583	    -13.91584126	     10.28660237	     -8.88426527	      7.01643239	      4.47167488	     31.21301865	    -15.83408956	     -5.56848520	     80.81263963	     44.97611198	      0.00000000	      0.00000000	     -0.03268623	     -6.70658415	     -2.27765800	     24.72115875	     45.17060801	      0.00000000	      0.00000000
     45.17121429	     -3.84589897	     -6.74915241	      4.22620105	      0.93180534	      0.92951999	      0.47744409	      3.78596570	      8.12029895	    -20.63278309	      5.88358797	      5.88358797	      9.36282168	      6.53785542	     -8.23487811	     34.48772636	    -10.89183415	     -0.93684483	     27.97698558	     27.97698558	      7.25252841	    -12.20117496	     10.57430983	     -8.72733083	      7.13356072	      4.68925672	     33.10953838	    -16.02145506	     -5.74120096	     81.79920241	     44.96052980	      0.00000000	      0.00000000	     -0.92289632	     -6.67435737	     -2.12492074	     24.32930260	     45.13258799	      0.00000000	      0.00000000
     45.18357143	     -3.91110278	     -6.87129096	      4.36050886	      0.93118017	      0.92879476	      0.47712009	      3.25524429	      8.30526097	    -20.79625225	      5.62587753	      5.62587753	      9.68457249	      6.91452057	     -8.33624088	     34.24563700	    -10.70380116	     -1.35536372	     24.58836137	     24.58836137	      7.50115646	    -10.25816734	     10.75737296	     -8.73194205	      7.28728900	      4.65777641	     34.92466228	    -15.95159127	     -5.77933281	     82.97344804	     44.93563179	      0.00000000	      0.00000000	     -1.98257936	     -6.77195365	     -1.86615878	     23.86947957	     45.07387572	      0.00000000	      0.00000000
